<?xml version="1.0" encoding="iso-8859-1"?>
<!-- Uploaded to: SVG Repo, www.svgrepo.com, Generator: SVG Repo Mixer Tools -->
<!DOCTYPE svg PUBLIC "-//W3C//DTD SVG 1.1//EN" "http://www.w3.org/Graphics/SVG/1.1/DTD/svg11.dtd">
<svg fill="#000000" height="800px" width="800px" version="1.1" id="Capa_1" xmlns="http://www.w3.org/2000/svg" xmlns:xlink="http://www.w3.org/1999/xlink" 
	 viewBox="0 0 292.026 292.026" xml:space="preserve">
<path d="M274.366,7.289C271.656,2.768,266.771,0,261.5,0h-90.736c-5.53,0-10.611,3.043-13.223,7.917l-51.549,96.239
	c-0.408,0.56-0.781,1.151-1.113,1.773L17.295,269.962c-3.175,5.947-1.992,13.282,2.892,17.931c2.864,2.726,6.588,4.134,10.345,4.134
	c2.649,0,5.316-0.699,7.708-2.133l133.44-79.981c6.902-4.138,9.311-12.984,5.456-20.048l-31.286-57.346l53.272,9.172
	c0.853,0.147,1.705,0.219,2.55,0.219c5.462,0,10.584-2.992,13.223-7.929l59.833-111.907
	C277.214,17.424,277.076,11.812,274.366,7.289z M69.265,236.319l48.987-91.752l25.649,47.016L69.265,236.319z"/>
</svg>